<?xml version="1.0" encoding="UTF-8" standalone="no"?>
<!-- Generator: Adobe Illustrator 19.0.0, SVG Export Plug-In . SVG Version: 6.00 Build 0)  -->

<svg
   version="1.1"
   id="layer"
   x="0px"
   y="0px"
   viewBox="-153 -46 633.5 199.5"
   xml:space="preserve"
   sodipodi:docname="logo.svg"
   width="181"
   height="57"
   inkscape:version="1.1.2 (0a00cf5339, 2022-02-04)"
   xmlns:inkscape="http://www.inkscape.org/namespaces/inkscape"
   xmlns:sodipodi="http://sodipodi.sourceforge.net/DTD/sodipodi-0.dtd"
   xmlns="http://www.w3.org/2000/svg"
   xmlns:svg="http://www.w3.org/2000/svg"><defs
   id="defs40" /><sodipodi:namedview
   id="namedview38"
   pagecolor="#ffffff"
   bordercolor="#666666"
   borderopacity="1.0"
   inkscape:pageshadow="2"
   inkscape:pageopacity="0.0"
   inkscape:pagecheckerboard="0"
   showgrid="false"
   width="651px"
   inkscape:zoom="0.58781078"
   inkscape:cx="62.945426"
   inkscape:cy="270.49521"
   inkscape:window-width="1680"
   inkscape:window-height="1018"
   inkscape:window-x="0"
   inkscape:window-y="0"
   inkscape:window-maximized="1"
   inkscape:current-layer="layer"
   scale-x="3.5" />
<style
   type="text/css"
   id="style2">
	.st0{fill:#6D6F71;}
	.st1{fill:#FCB034;}
	.st2{fill:#EE3224;}
	.st3{fill:#009DDC;}
	.st4{fill:#C1D82F;}
</style>
<g
   id="g4206"
   transform="matrix(0.3966185,0,0,0.3966185,49.792262,-153.35116)">
	<g
   id="g12"
   transform="matrix(1.25,0,0,-1.25,-676.78974,794.21331)">
		<g
   id="g11">
			<g
   id="g14">
				<g
   id="g20"
   transform="translate(730.6348,618.8965)">
					<path
   id="path22"
   class="st0"
   d="m 605.4,-497.6 h -6.1 v -60.1 h 6.1 v 32 h 0.1 l 30.1,-32 h 9 l -32,32.9 30.3,27.3 h -8.8 l -28.6,-27 h -0.1 z m -21,-47.3 c -2.1,-3.1 -4.7,-5.4 -7.8,-6.8 -3.1,-1.4 -6.4,-2.1 -9.8,-2.1 -3.8,0 -7.3,0.7 -10.4,2.1 -3.1,1.4 -5.7,3.3 -7.9,5.7 -2.1,2.4 -3.8,5.2 -5,8.3 -1.2,3.2 -1.7,6.5 -1.7,10 0,3.5 0.6,6.8 1.7,10 1.1,3.2 2.8,5.9 4.9,8.3 2.1,2.4 4.8,4.3 7.9,5.7 3.1,1.4 6.6,2.1 10.5,2.1 1.9,0 3.7,-0.2 5.4,-0.7 1.7,-0.5 3.2,-1.1 4.6,-1.8 1.4,-0.7 2.6,-1.6 3.7,-2.5 1,-1 1.9,-1.9 2.5,-2.9 l 5.1,3.7 c -1,1.5 -2.3,2.8 -3.8,4 -1.5,1.2 -3.2,2.2 -5.1,3 -1.9,0.8 -3.9,1.5 -6,1.9 -2.1,0.5 -4.3,0.7 -6.5,0.7 -4.5,0 -8.6,-0.8 -12.4,-2.4 -3.8,-1.6 -7.1,-3.8 -9.9,-6.6 -2.8,-2.8 -5,-6.1 -6.6,-10 -1.6,-3.8 -2.4,-8.1 -2.4,-12.6 0,-4.6 0.8,-8.8 2.3,-12.7 1.6,-3.8 3.7,-7.2 6.5,-10 2.8,-2.8 6.1,-5 9.9,-6.6 3.8,-1.6 8,-2.4 12.6,-2.4 2.7,0 5.2,0.3 7.5,0.9 2.3,0.6 4.4,1.4 6.3,2.5 1.9,1 3.6,2.2 5,3.6 1.4,1.4 2.7,2.8 3.7,4.3 0,0.3 -4.8,3.3 -4.8,3.3 z m -61.4,47.3 h -6.1 v -60.1 h 6.1 z m -88.5,0 H 428 l 17.7,-60.1 h 7.1 l 15.1,51.6 h 0.2 l 15.1,-51.6 h 7.1 l 17.8,60.1 h -6.5 L 487,-549.3 h -0.2 l -15,51.7 h -7.3 l -15,-51.7 h -0.2 z m -44,-5.2 h 10.9 c 2.3,0 4.3,-0.2 6.2,-0.6 1.9,-0.4 3.4,-1 4.7,-1.9 1.3,-0.8 2.3,-2 3.1,-3.3 0.7,-1.4 1.1,-3 1.1,-5 0,-3.6 -1.3,-6.2 -4,-8 -2.7,-1.8 -6.4,-2.7 -11.4,-2.7 h -10.6 c 0,0 0,21.5 0,21.5 z m 0,-26.8 h 10.2 l 16.6,-28.1 h 7.5 l -17.6,28.6 c 2.2,0.2 4.2,0.7 6.1,1.5 1.9,0.8 3.5,1.8 4.8,3.2 1.4,1.3 2.4,2.9 3.2,4.7 0.8,1.8 1.2,3.8 1.2,6 0,2.9 -0.5,5.4 -1.5,7.5 -1,2 -2.4,3.7 -4.3,5 -1.9,1.3 -4,2.2 -6.5,2.8 -2.5,0.6 -5.3,0.8 -8.2,0.8 h -17.7 v -60.1 h 6.1 v 28.1 z m -43.5,25.2 13.2,-31.9 h -26.5 c 0.1,0 13.3,31.9 13.3,31.9 z m -15.5,-37.5 h 31.1 l 6.6,-15.8 h 6.8 l -25.8,60.1 h -5.9 l -26,-60.1 h 6.7 c -0.1,0 6.5,15.8 6.5,15.8 z m -87.6,44.3 h -6.5 l 17.7,-60.1 h 7.1 l 15.1,51.6 h 0.2 l 15.1,-51.6 h 7.1 l 17.7,60.1 H 311 l -14.7,-51.7 h -0.2 l -15,51.7 H 274 l -15,-51.7 h -0.2 z m -60.1,-31.6 h 28 v 5.4 h -28 v 20.8 h 30.1 v 5.4 h -36.3 v -60.1 h 6.1 c 0.1,0 0.1,28.5 0.1,28.5 z m -26.6,-8.5 c -1.1,-3.2 -2.8,-5.9 -4.9,-8.3 -2.1,-2.4 -4.8,-4.3 -7.9,-5.7 -3.1,-1.4 -6.6,-2.1 -10.4,-2.1 -3.9,0 -7.3,0.7 -10.4,2.1 -3.1,1.4 -5.7,3.3 -7.9,5.7 -2.1,2.4 -3.8,5.1 -4.9,8.3 -1.1,3.2 -1.7,6.5 -1.7,10 0,3.5 0.6,6.8 1.7,10 1.1,3.2 2.8,6 4.9,8.4 2.1,2.4 4.8,4.3 7.9,5.7 3.1,1.4 6.5,2.1 10.4,2.1 3.8,0 7.3,-0.7 10.4,-2.1 3.1,-1.4 5.7,-3.3 7.9,-5.7 2.1,-2.4 3.8,-5.2 4.9,-8.4 1.1,-3.2 1.7,-6.5 1.7,-10 0,-3.5 -0.6,-6.8 -1.7,-10 m 5.8,22.7 c -1.6,3.8 -3.8,7.2 -6.6,10 -2.8,2.8 -6.1,5 -9.9,6.6 -3.8,1.6 -8,2.4 -12.4,2.4 -4.5,0 -8.6,-0.8 -12.4,-2.4 -3.8,-1.6 -7.1,-3.8 -9.9,-6.6 -2.8,-2.8 -5,-6.1 -6.6,-10 -1.6,-3.8 -2.4,-8.1 -2.4,-12.6 0,-4.6 0.8,-8.8 2.4,-12.7 1.6,-3.8 3.8,-7.2 6.6,-10 2.8,-2.8 6.1,-5 9.9,-6.6 3.8,-1.6 8,-2.4 12.4,-2.4 4.5,0 8.6,0.8 12.4,2.4 3.8,1.6 7.1,3.8 9.9,6.6 2.8,2.8 5,6.1 6.6,10 1.6,3.8 2.4,8.1 2.4,12.7 0,4.6 -0.8,8.8 -2.4,12.6 m -105.4,-16.8 22.5,34.2 H 73 l -18.3,-29.1 -18.1,29.1 H 29 l 22.5,-34.2 v -25.9 h 6.1 c 0,0 0,25.9 0,25.9 z M 9.2,-503 h 20.1 v 5.4 H -17 V -503 H 3.1 v -54.7 h 6.1 c 0,0 0,54.7 0,54.7 z m -34.8,5.4 h -6.1 v -60.1 h 6.1 c 0,0 0,60.1 0,60.1 z m -19.6,-5.7 c -1.5,2 -3.7,3.7 -6.5,5.1 -2.9,1.4 -6.4,2.2 -10.4,2.2 -2.2,0 -4.4,-0.3 -6.7,-0.9 -2.3,-0.6 -4.3,-1.6 -6.2,-3 -1.9,-1.4 -3.4,-3.1 -4.5,-5.2 -1.2,-2.1 -1.7,-4.6 -1.7,-7.5 0,-2.7 0.5,-5 1.4,-6.9 0.9,-1.9 2.2,-3.4 3.7,-4.7 1.5,-1.3 3.2,-2.3 5.2,-3.1 1.9,-0.8 3.9,-1.5 5.9,-2.1 1.9,-0.6 3.8,-1.2 5.5,-1.9 1.8,-0.6 3.3,-1.4 4.7,-2.3 1.4,-0.9 2.4,-2.1 3.3,-3.5 0.8,-1.4 1.2,-3.1 1.2,-5.2 0,-1.9 -0.4,-3.6 -1.2,-5.1 -0.8,-1.4 -1.9,-2.7 -3.1,-3.7 -1.3,-1 -2.7,-1.7 -4.3,-2.2 -1.6,-0.5 -3.1,-0.7 -4.7,-0.7 -3.2,0 -5.9,0.7 -8.3,2.2 -2.4,1.4 -4.2,3.2 -5.5,5.4 l -5.3,-3.9 c 1.1,-1.5 2.3,-2.8 3.7,-3.9 1.4,-1.1 2.9,-2.1 4.6,-2.8 1.6,-0.7 3.4,-1.3 5.2,-1.7 1.8,-0.4 3.6,-0.5 5.4,-0.5 2.4,0 4.7,0.3 7.1,1 2.3,0.7 4.4,1.7 6.3,3.1 1.8,1.4 3.3,3.2 4.5,5.4 1.1,2.2 1.7,4.8 1.7,7.8 0,3 -0.5,5.5 -1.6,7.4 -1.1,2 -2.5,3.6 -4.1,4.8 -1.7,1.3 -3.6,2.3 -5.7,3.1 -2.1,0.8 -4.2,1.5 -6.3,2.2 -1.7,0.6 -3.3,1.1 -4.9,1.7 -1.5,0.6 -2.9,1.3 -4.1,2.2 -1.2,0.9 -2.2,1.9 -2.9,3.2 -0.7,1.2 -1.1,2.8 -1.1,4.8 0,1.9 0.4,3.6 1.1,5 0.8,1.4 1.8,2.6 3,3.5 1.2,0.9 2.6,1.6 4.2,2.1 1.5,0.5 3,0.7 4.5,0.7 2.9,0 5.4,-0.5 7.4,-1.7 2,-1.1 3.7,-2.6 5,-4.4 -0.3,0.1 4.5,4 4.5,4 z m -78.3,0.5 h 10.9 c 2.3,0 4.3,-0.2 6.2,-0.6 1.9,-0.4 3.4,-1 4.8,-1.9 1.3,-0.8 2.3,-2 3.1,-3.3 0.7,-1.4 1.1,-3 1.1,-5 0,-3.6 -1.3,-6.2 -4,-8 -2.7,-1.8 -6.5,-2.7 -11.4,-2.7 h -10.6 c -0.1,0 -0.1,21.5 -0.1,21.5 z m 0,-26.8 h 10.2 l 16.6,-28.1 h 7.5 l -17.6,28.6 c 2.2,0.2 4.2,0.7 6.1,1.5 1.9,0.8 3.5,1.8 4.8,3.2 1.4,1.3 2.4,2.9 3.2,4.7 0.8,1.8 1.2,3.8 1.2,6 0,2.9 -0.5,5.4 -1.5,7.5 -1,2 -2.5,3.7 -4.3,5 -1.8,1.3 -4,2.2 -6.5,2.8 -2.5,0.6 -5.2,0.8 -8.2,0.8 h -17.7 v -60.1 h 6.1 c 0.1,0 0.1,28.1 0.1,28.1 z m -49.8,0.5 h 29.1 v 5.4 h -29.1 v 20.6 h 31.2 v 5.4 h -37.3 v -60.1 h 38.3 v 5.4 h -32.2 z m -59.7,31.5 h -6.6 l 22.9,-60.1 h 6.5 l 23,60.1 h -6.5 l -19.5,-52.2 h -0.2 c -0.1,0 -19.6,52.2 -19.6,52.2 z m -14.4,0 h -6.1 v -60.1 h 6.1 z m -62.9,0 h -7.6 v -60.1 h 6.1 v 51.7 h 0.2 l 35,-51.7 h 7.6 v 60.1 h -6.1 v -51.2 h -0.2 c -0.1,0 -35,51.2 -35,51.2 z m -34.3,-59.3 c 2.9,1.6 5.2,3.5 6.9,5.9 1.7,2.4 2.9,5 3.5,7.8 0.6,2.8 1,5.4 1,7.9 v 37.7 h -6.1 v -37 c 0,-2.4 -0.3,-4.8 -0.8,-7.1 -0.6,-2.3 -1.5,-4.3 -2.8,-6.1 -1.3,-1.8 -3,-3.2 -5.1,-4.3 -2.1,-1.1 -4.7,-1.7 -7.7,-1.7 -3.1,0 -5.6,0.6 -7.7,1.7 -2.1,1.1 -3.8,2.5 -5.1,4.3 -1.3,1.8 -2.2,3.8 -2.8,6.1 -0.6,2.3 -0.8,4.7 -0.8,7.1 v 37 h -6.1 v -37.7 c 0,-2.5 0.3,-5.1 1,-7.9 0.7,-2.8 1.8,-5.4 3.5,-7.8 1.7,-2.4 4,-4.3 6.9,-5.9 2.9,-1.6 6.6,-2.3 11.1,-2.3 4.5,0 8.2,0.8 11.1,2.3 m -97.3,27.8 h 29.1 v 5.4 h -29.1 v 20.6 h 31.2 v 5.4 H -448 v -60.1 h 38.3 v 5.4 h -32.2 c 0,0.1 0,23.3 0,23.3 z m -66.7,-28.6 h 6.1 v 28.4 h 32.8 v -28.4 h 6.1 v 60.1 h -6.1 v -26.1 h -32.8 v 26.1 h -6.1 z m -28.7,54.7 h 20.1 v 5.4 h -46.4 v -5.4 h 20.1 v -54.7 h 6.1 v 54.7 z" />
				</g>
				<g
   id="g24"
   transform="translate(545.3779,643.6841)">
					<path
   id="path26"
   class="st0"
   d="m -4.3,-416 40.7,117.8 c 1.7,1.6 2.3,2.3 3.7,3.5 16.2,14.6 46.4,20.6 66.7,22 l 57.7,-145.3 54.4,145.1 h 53 l -77.5,-186 H 130.3 L 77,-320.1 H 75.6 L 28.5,-458.9 h -63.7 l -83.3,186 H -62 Z" />
				</g>
				<g
   id="g28"
   transform="translate(677.5684,677.0259)">
					<path
   id="path30"
   class="st0"
   d="m 430.7,-306.3 h 4.8 v -186 h -46.8 v 145.1 L 323,-492.3 h -55.1 l -67.9,146 v -145.9 h -47.5 v 186 h 4.1 c 14.1,0 61.3,-2.3 82.7,-21.7 l 54.7,-122.9 56.5,125 c 22.4,17.5 66.5,19.5 80.2,19.5" />
				</g>
			</g>
		</g>
	</g>
	<g
   id="g32"
   transform="matrix(1.25,0,0,-1.25,-676.78974,794.21331)">
		<g
   id="g19">
			<g
   id="g34">
				<g
   id="g40"
   transform="translate(738.1367,659.2222)">
					<path
   id="path42"
   class="st0"
   d="M 630.1,-364.9 V -474.5 H 513 c -16.5,0 -29.6,0.9 -39.3,2.9 -21,3.7 -37.9,11.4 -50.6,22.9 -16.9,15.2 -25.1,36.3 -25.1,63.8 0,28.9 7.2,50.9 22.4,66.4 18.9,20 51.3,30 96.4,30 h 113.3 c -2.4,-17.5 -15.8,-30.9 -15.8,-30.9 l -97.5,-0.3 c -21,0 -36.2,-5.2 -45.8,-15.5 -9.6,-10.3 -14.5,-25.2 -14.5,-44.6 0,-19.7 4.1,-34.3 12.4,-44.1 9.6,-11.7 25.5,-17.5 47.9,-17.5 h 59.9 v 43.8 l -50.6,-0.6 c 0,0 -15.2,13.2 -18.9,33.2 h 122.9 z" />
				</g>
				<g
   id="g44"
   transform="translate(469.9741,668.0879)">
					<path
   id="path46"
   class="st1"
   d="m -252.4,-335.7 c 0,0 -78,-86.6 -44.1,-129.6 0,0 28.1,-38.1 101.5,18.2 0,0 -75.6,60.1 -57.4,111.4" />
				</g>
			</g>
		</g>
	</g>
	<g
   id="g48"
   transform="matrix(1.25,0,0,-1.25,-676.78974,794.21331)">
		<g
   id="g25">
			<g
   id="g50">
				<g
   id="g56"
   transform="translate(459.2871,634.4023)">
					<path
   id="path58"
   class="st2"
   d="m -287.6,-446.5 c 0,0 22.1,-25.3 66,-6.5 43.9,18.9 158.8,99.5 144.8,146.4 0,0 46.1,-70 -7.4,-126.9 0,0 -22.8,-23.1 -61.3,-27.4 -54.8,-6 -130.2,-13.3 -142.1,14.4" />
				</g>
			</g>
		</g>
	</g>
	<g
   id="g60"
   transform="matrix(1.25,0,0,-1.25,-676.78974,794.21331)">
		<g
   id="g33">
			<g
   id="g62">
				<g
   id="g68"
   transform="translate(494.5991,682.0254)">
					<path
   id="path70"
   class="st3"
   d="m -171.4,-289.8 c 0,0 54.5,8.5 72.6,-12.3 0,0 16.5,-19.8 0,-48.6 0,0 -9.6,43.8 -72.6,60.9" />
				</g>
				<g
   id="g72"
   transform="translate(471.9038,662.708)">
					<path
   id="path74"
   class="st4"
   d="m -246.1,-353.4 c 0,0 10.5,43 99.7,74.7 0.1,0 -97.3,27.3 -99.7,-74.7" />
				</g>
			</g>
		</g>
	</g>
</g>
</svg>
